<svg width="40" height="39" viewBox="0 0 40 39" fill="none" xmlns="http://www.w3.org/2000/svg">
<path d="M1.6665 1.66669H8.33317L12.7998 23.9834C12.9522 24.7507 13.3697 25.44 13.9791 25.9305C14.5885 26.4211 15.351 26.6817 16.1332 26.6667H32.3332C33.1153 26.6817 33.8779 26.4211 34.4873 25.9305C35.0967 25.44 35.5141 24.7507 35.6665 23.9834L38.3332 10H9.99984M16.6665 35C16.6665 35.9205 15.9203 36.6667 14.9998 36.6667C14.0794 36.6667 13.3332 35.9205 13.3332 35C13.3332 34.0795 14.0794 33.3334 14.9998 33.3334C15.9203 33.3334 16.6665 34.0795 16.6665 35ZM34.9998 35C34.9998 35.9205 34.2536 36.6667 33.3332 36.6667C32.4127 36.6667 31.6665 35.9205 31.6665 35C31.6665 34.0795 32.4127 33.3334 33.3332 33.3334C34.2536 33.3334 34.9998 34.0795 34.9998 35Z" stroke="#79747E" stroke-width="4" stroke-linecap="round" stroke-linejoin="round"/>
</svg>
