<svg width="34" height="32" viewBox="0 0 34 32" fill="none" xmlns="http://www.w3.org/2000/svg">
<path d="M16.9999 31.7143L14.5833 29.5034C11.7777 26.924 9.45825 24.699 7.62492 22.8282C5.79159 20.9575 4.33325 19.2851 3.24992 17.8112C2.16659 16.3089 1.4027 14.9342 0.958252 13.687C0.541585 12.4399 0.333252 11.1644 0.333252 9.86052C0.333252 7.19612 1.20825 4.97106 2.95825 3.18535C4.70825 1.39963 6.88881 0.506775 9.49992 0.506775C10.9444 0.506775 12.3194 0.818566 13.6249 1.44215C14.9305 2.06573 16.0555 2.94442 16.9999 4.0782C17.9444 2.94442 19.0694 2.06573 20.3749 1.44215C21.6805 0.818566 23.0555 0.506775 24.4999 0.506775C27.111 0.506775 29.2916 1.39963 31.0416 3.18535C32.7916 4.97106 33.6666 7.19612 33.6666 9.86052C33.6666 11.1644 33.4444 12.4399 32.9999 13.687C32.5833 14.9342 31.8333 16.3089 30.7499 17.8112C29.6666 19.2851 28.2083 20.9575 26.3749 22.8282C24.5416 24.699 22.2221 26.924 19.4166 29.5034L16.9999 31.7143ZM16.9999 27.1224C19.6666 24.6848 21.861 22.6014 23.5833 20.8724C25.3055 19.1151 26.6666 17.5986 27.6666 16.3231C28.6666 15.0192 29.361 13.8713 29.7499 12.8792C30.1388 11.8588 30.3333 10.8526 30.3333 9.86052C30.3333 8.15984 29.7777 6.7426 28.6666 5.60882C27.5555 4.47503 26.1666 3.90814 24.4999 3.90814C23.1944 3.90814 21.986 4.29079 20.8749 5.0561C19.7638 5.79306 18.9999 6.7426 18.5833 7.90474H15.4166C14.9999 6.7426 14.236 5.79306 13.1249 5.0561C12.0138 4.29079 10.8055 3.90814 9.49992 3.90814C7.83325 3.90814 6.44436 4.47503 5.33325 5.60882C4.22214 6.7426 3.66659 8.15984 3.66659 9.86052C3.66659 10.8526 3.86103 11.8588 4.24992 12.8792C4.63881 13.8713 5.33325 15.0192 6.33325 16.3231C7.33325 17.5986 8.69436 19.1151 10.4166 20.8724C12.1388 22.6014 14.3333 24.6848 16.9999 27.1224Z" fill="#79747E"/>
</svg>
