<svg width="34" height="34" viewBox="0 0 34 34" fill="none" xmlns="http://www.w3.org/2000/svg">
<path d="M6.75016 25.5C8.16683 24.4166 9.75016 23.5625 11.5002 22.9375C13.2502 22.3125 15.0835 22 17.0002 22C18.9168 22 20.7502 22.3125 22.5002 22.9375C24.2502 23.5625 25.8335 24.4166 27.2502 25.5C28.2224 24.3611 28.9793 23.0694 29.521 21.625C30.0627 20.1805 30.3335 18.6389 30.3335 17C30.3335 13.3055 29.0349 10.1597 26.4377 7.56248C23.8404 4.96526 20.6946 3.66665 17.0002 3.66665C13.3057 3.66665 10.1599 4.96526 7.56266 7.56248C4.96544 10.1597 3.66683 13.3055 3.66683 17C3.66683 18.6389 3.93766 20.1805 4.47933 21.625C5.021 23.0694 5.77794 24.3611 6.75016 25.5ZM17.0002 18.6666C15.3613 18.6666 13.9793 18.1041 12.8543 16.9791C11.7293 15.8541 11.1668 14.4722 11.1668 12.8333C11.1668 11.1944 11.7293 9.81248 12.8543 8.68748C13.9793 7.56248 15.3613 6.99998 17.0002 6.99998C18.6391 6.99998 20.021 7.56248 21.146 8.68748C22.271 9.81248 22.8335 11.1944 22.8335 12.8333C22.8335 14.4722 22.271 15.8541 21.146 16.9791C20.021 18.1041 18.6391 18.6666 17.0002 18.6666ZM17.0002 33.6666C14.6946 33.6666 12.5279 33.2291 10.5002 32.3541C8.47239 31.4791 6.7085 30.2916 5.2085 28.7916C3.7085 27.2916 2.521 25.5278 1.646 23.5C0.770996 21.4722 0.333496 19.3055 0.333496 17C0.333496 14.6944 0.770996 12.5278 1.646 10.5C2.521 8.4722 3.7085 6.70831 5.2085 5.20831C6.7085 3.70831 8.47239 2.52081 10.5002 1.64581C12.5279 0.770813 14.6946 0.333313 17.0002 0.333313C19.3057 0.333313 21.4724 0.770813 23.5002 1.64581C25.5279 2.52081 27.2918 3.70831 28.7918 5.20831C30.2918 6.70831 31.4793 8.4722 32.3543 10.5C33.2293 12.5278 33.6668 14.6944 33.6668 17C33.6668 19.3055 33.2293 21.4722 32.3543 23.5C31.4793 25.5278 30.2918 27.2916 28.7918 28.7916C27.2918 30.2916 25.5279 31.4791 23.5002 32.3541C21.4724 33.2291 19.3057 33.6666 17.0002 33.6666Z" fill="#79747E"/>
</svg>
